<?xml version="1.0" ?><!DOCTYPE svg  PUBLIC '-//W3C//DTD SVG 1.1//EN'  'http://www.w3.org/Graphics/SVG/1.1/DTD/svg11.dtd'><svg height="48px" id="Слой_1" style="enable-background:new 0 0 48 48;" version="1.1" viewBox="0 0 48 48" width="48px" xml:space="preserve" xmlns="http://www.w3.org/2000/svg" xmlns:xlink="http://www.w3.org/1999/xlink"><g><g><g><rect height="10" style="fill:#7D50F9;" width="4" x="20" y="16"/><rect height="10" style="fill:#7D50F9;" width="4" x="28" y="16"/><polygon points="40,22 36,26 36,16 40,16     " style="fill:#7D50F9;"/></g><g><path d="M45,10H15c-0.6,0-1-0.4-1-1V8V5c0-1.7-1.3-3-3-3H0v2h0.1c0.4,2,2,3.5,4,3.9C4.5,10.2,6.6,12,9,12      h3v14h2V11.8c0.3,0.1,0.6,0.2,1,0.2h30c0.6,0,1,0.4,1,1v7c0,0.8-0.5,2.2-1.1,2.8l-6.3,7C38.1,30.4,36.8,31,36,31H15      c-1.7,0-3,1.3-3,3v2.1c-2.3,0.5-4,2.5-4,4.9c0,2.8,2.2,5,5,5c2.4,0,4.4-1.7,4.9-4h8.2c0.5,2.3,2.5,4,4.9,4c2.8,0,5-2.2,5-5      s-2.2-5-5-5c-2.4,0-4.4,1.7-4.9,4h-8.2c-0.4-2-1.9-3.5-3.9-3.9V34c0-0.6,0.4-1,1-1h21c1.4,0,3.1-0.8,4.1-1.8l6.3-7      c0.9-1,1.6-2.8,1.6-4.2v-7C48,11.3,46.7,10,45,10z M2.2,4H11c0.6,0,1,0.4,1,1v1H5C3.7,6,2.6,5.2,2.2,4z M9,10      c-1.3,0-2.4-0.8-2.8-2H12v1v1H9z M31,38c1.7,0,3,1.3,3,3s-1.3,3-3,3s-3-1.3-3-3S29.3,38,31,38z M16,41c0,1.7-1.3,3-3,3      s-3-1.3-3-3s1.3-3,3-3S16,39.3,16,41z" style="fill:#303033;"/><path d="M31,42.5c0.8,0,1.5-0.7,1.5-1.5s-0.7-1.5-1.5-1.5s-1.5,0.7-1.5,1.5S30.2,42.5,31,42.5z" style="fill:#303033;"/><path d="M11.5,41c0,0.8,0.7,1.5,1.5,1.5s1.5-0.7,1.5-1.5s-0.7-1.5-1.5-1.5S11.5,40.2,11.5,41z" style="fill:#303033;"/></g></g></g></svg>